<svg width="198" height="198" viewBox="0 0 198 198" fill="none" xmlns="http://www.w3.org/2000/svg">
<rect width="198" height="198" rx="23" fill="#0E0E4E"/>
<path d="M57.1549 32L40.5 56.5L9 106L18.5 99V120.341H22.8434L25.2261 92.5272L59.8553 43.5365L96.2319 93.6335V144.679C96.2319 144.679 84 146 79.5 146.5C75 147 65 151 65 151H189L186.617 95.846L149.923 58.3918L137.85 55.2311V46.6972L127.208 40.2178L120.536 41.6401V50.332L57.1549 32Z" fill="white"/>
<path d="M41.5 92.62V102.5L52.6429 101.98V91.32L41.5 92.62Z" fill="#C75536"/>
<path d="M67.5 89.5L54.7653 91.32V101.98L67.5 101.2V89.5Z" fill="#C75536"/>
<path d="M41.5 79.88V90.28L52.6429 88.98V78.32L41.5 79.88Z" fill="#C75536"/>
<path d="M67.5 76.5L54.7653 78.32V88.98L67.5 87.42V76.5Z" fill="#C75536"/>
</svg>
