<svg width="2846" height="870" viewBox="0 0 2846 870" fill="none" xmlns="http://www.w3.org/2000/svg">
<rect width="2846" height="870" rx="119" fill="#151D25"/>
<path d="M313.345 269.373L182.761 482.246L313.345 307.535L371.504 471.513L376.442 537.7L380.283 478.668L556.956 465.55L564.089 566.321L572.319 461.376L691.929 276.529L817.575 465.55V632C684.086 627.85 611.748 653.356 471.934 655.5C251.519 653.403 246.5 663 115.5 682H1138L1129.77 473.898L1003.03 332.579L961.327 320.653V288.454L924.566 264.007L901.522 269.373V302.169L682.602 233L618.407 320.653L491.664 337.349L386.867 441.102L468.071 337.349L313.345 269.373Z" fill="white"/>
<path d="M263.416 433.351V456.009L286.46 454.817V430.369L263.416 433.351Z" fill="white"/>
<path d="M317.186 426.195L290.85 430.369V454.817L317.186 453.028V426.195Z" fill="white"/>
<path d="M263.416 404.133V427.984L286.46 425.003V400.555L263.416 404.133Z" fill="white"/>
<path d="M317.186 396.381L290.85 400.555V425.003L317.186 421.425V396.381Z" fill="white"/>
<path d="M654.619 401.151V429.177L683.699 427.388V396.977L654.619 401.151Z" fill="white"/>
<path d="M689 365.5V390L719 387.5V361L689 365.5Z" fill="white"/>
<path d="M689 395V425L719 422V391.5L689 395Z" fill="white"/>
<path d="M683.5 365.5L656 369.5V395L683.5 391.5V365.5Z" fill="white"/>
<path d="M719 475.5L656 485.5L654.619 632L719 625V475.5Z" fill="white"/>
<path d="M444.5 532.969V556.5L467.544 554.436V529.988L444.5 532.969Z" fill="white"/>
<path d="M498.27 525.814L471.934 529.988V554.436L498.27 552.647V525.814Z" fill="white"/>
<path d="M444.5 501.5V527.603L467.544 524.622L467.5 499L444.5 501.5Z" fill="white"/>
<path d="M498.27 496L471.934 498.5V524.622L498.27 521.044V496Z" fill="white"/>
<g filter="url(#filter0_di_1_80)">
<path d="M1160.02 552V261.091H1230.33V377.852H1344.96V261.091H1415.13V552H1344.96V435.097H1230.33V552H1160.02ZM1520.74 555.693C1506.82 555.693 1494.46 553.373 1483.67 548.733C1472.97 543.998 1464.49 536.896 1458.24 527.426C1452.09 517.862 1449.01 505.883 1449.01 491.489C1449.01 479.367 1451.14 469.14 1455.4 460.807C1459.66 452.473 1465.53 445.703 1473.01 440.494C1480.5 435.286 1489.11 431.356 1498.87 428.705C1508.62 425.958 1519.04 424.112 1530.12 423.165C1542.52 422.028 1552.51 420.845 1560.09 419.614C1567.66 418.288 1573.16 416.441 1576.57 414.074C1580.07 411.612 1581.82 408.155 1581.82 403.705V402.994C1581.82 395.703 1579.31 390.068 1574.29 386.091C1569.27 382.114 1562.5 380.125 1553.98 380.125C1544.79 380.125 1537.41 382.114 1531.82 386.091C1526.23 390.068 1522.68 395.561 1521.17 402.568L1457.11 400.295C1459 387.038 1463.88 375.201 1471.74 364.784C1479.69 354.273 1490.58 346.034 1504.41 340.068C1518.33 334.008 1535.04 330.977 1554.55 330.977C1568.47 330.977 1581.3 332.634 1593.04 335.949C1604.79 339.169 1615.01 343.903 1623.72 350.153C1632.44 356.309 1639.16 363.884 1643.89 372.881C1648.72 381.877 1651.14 392.152 1651.14 403.705V552H1585.8V521.602H1584.09C1580.21 528.989 1575.24 535.239 1569.18 540.352C1563.21 545.466 1556.16 549.301 1548.01 551.858C1539.96 554.415 1530.87 555.693 1520.74 555.693ZM1542.19 510.239C1549.67 510.239 1556.39 508.723 1562.36 505.693C1568.42 502.663 1573.25 498.496 1576.85 493.193C1580.45 487.795 1582.25 481.545 1582.25 474.443V453.705C1580.26 454.746 1577.84 455.693 1575 456.545C1572.26 457.398 1569.23 458.203 1565.91 458.96C1562.6 459.718 1559.19 460.381 1555.68 460.949C1552.18 461.517 1548.82 462.038 1545.6 462.511C1539.07 463.553 1533.48 465.163 1528.84 467.341C1524.29 469.519 1520.79 472.36 1518.33 475.864C1515.96 479.273 1514.78 483.345 1514.78 488.08C1514.78 495.277 1517.33 500.769 1522.45 504.557C1527.65 508.345 1534.24 510.239 1542.19 510.239ZM1834.38 457.824V333.818H1903.7V552H1837.5V511.375H1835.23C1830.4 524.727 1822.16 535.333 1810.51 543.193C1798.96 550.958 1784.99 554.841 1768.61 554.841C1753.74 554.841 1740.68 551.432 1729.41 544.614C1718.14 537.795 1709.38 528.278 1703.13 516.062C1696.88 503.752 1693.71 489.358 1693.61 472.881V333.818H1763.07V459.244C1763.17 471.081 1766.29 480.409 1772.45 487.227C1778.6 494.045 1786.98 497.455 1797.59 497.455C1804.5 497.455 1810.7 495.939 1816.2 492.909C1821.78 489.784 1826.19 485.286 1829.41 479.415C1832.72 473.449 1834.38 466.252 1834.38 457.824ZM2138.39 400.438L2074.61 402.142C2073.95 397.597 2072.15 393.572 2069.21 390.068C2066.28 386.47 2062.44 383.676 2057.71 381.688C2053.07 379.604 2047.67 378.562 2041.52 378.562C2033.47 378.562 2026.6 380.172 2020.92 383.392C2015.33 386.612 2012.59 390.968 2012.68 396.46C2012.59 400.722 2014.29 404.415 2017.79 407.54C2021.39 410.665 2027.78 413.174 2036.97 415.068L2079.02 423.023C2100.8 427.189 2116.99 434.102 2127.6 443.761C2138.3 453.42 2143.69 466.205 2143.79 482.114C2143.69 497.076 2139.24 510.097 2130.44 521.176C2121.72 532.256 2109.79 540.873 2094.64 547.028C2079.49 553.089 2062.16 556.119 2042.65 556.119C2011.5 556.119 1986.92 549.727 1968.93 536.943C1951.03 524.064 1940.81 506.83 1938.25 485.239L2006.86 483.534C2008.37 491.489 2012.3 497.549 2018.65 501.716C2024.99 505.883 2033.09 507.966 2042.94 507.966C2051.84 507.966 2059.08 506.309 2064.67 502.994C2070.26 499.68 2073.1 495.277 2073.19 489.784C2073.1 484.86 2070.92 480.93 2066.66 477.994C2062.4 474.964 2055.72 472.597 2046.63 470.892L2008.56 463.648C1986.69 459.67 1970.4 452.331 1959.7 441.631C1949 430.835 1943.69 417.104 1943.79 400.438C1943.69 385.854 1947.58 373.402 1955.44 363.08C1963.3 352.663 1974.47 344.708 1988.96 339.216C2003.45 333.723 2020.54 330.977 2040.24 330.977C2069.78 330.977 2093.08 337.18 2110.12 349.585C2127.17 361.896 2136.59 378.847 2138.39 400.438ZM2177.99 552V261.091H2376.57V318.193H2248.3V377.852H2363.92V435.097H2248.3V552H2177.99ZM2411.97 552V333.818H2481.43V552H2411.97ZM2446.77 308.392C2437.02 308.392 2428.64 305.172 2421.63 298.733C2414.62 292.199 2411.12 284.339 2411.12 275.153C2411.12 266.062 2414.62 258.297 2421.63 251.858C2428.64 245.324 2437.02 242.057 2446.77 242.057C2456.62 242.057 2465 245.324 2471.91 251.858C2478.92 258.297 2482.42 266.062 2482.42 275.153C2482.42 284.339 2478.92 292.199 2471.91 298.733C2465 305.172 2456.62 308.392 2446.77 308.392ZM2648.8 333.818V384.955H2511.15V333.818H2648.8ZM2539.99 281.545H2609.45V483.392C2609.45 487.653 2610.11 491.11 2611.44 493.761C2612.86 496.318 2614.89 498.165 2617.55 499.301C2620.2 500.343 2623.37 500.864 2627.06 500.864C2629.71 500.864 2632.51 500.627 2635.44 500.153C2638.47 499.585 2640.75 499.112 2642.26 498.733L2652.77 548.875C2649.46 549.822 2644.77 551.006 2638.71 552.426C2632.74 553.847 2625.59 554.746 2617.26 555.125C2600.97 555.883 2587.01 553.989 2575.36 549.443C2563.8 544.803 2554.95 537.606 2548.8 527.852C2542.73 518.098 2539.8 505.835 2539.99 491.062V281.545Z" fill="white"/>
</g>
<path d="M1228.93 619.827C1228.59 616.389 1227.13 613.719 1224.54 611.815C1221.95 609.912 1218.45 608.96 1214.01 608.96C1211 608.96 1208.46 609.386 1206.39 610.239C1204.31 611.062 1202.72 612.213 1201.61 613.69C1200.53 615.168 1199.99 616.844 1199.99 618.719C1199.94 620.281 1200.26 621.645 1200.97 622.81C1201.71 623.974 1202.72 624.983 1204 625.835C1205.28 626.659 1206.76 627.384 1208.43 628.009C1210.11 628.605 1211.9 629.116 1213.8 629.543L1221.64 631.418C1225.45 632.27 1228.94 633.406 1232.12 634.827C1235.31 636.247 1238.06 637.994 1240.39 640.068C1242.72 642.142 1244.53 644.585 1245.8 647.398C1247.11 650.21 1247.78 653.435 1247.81 657.071C1247.78 662.412 1246.41 667.043 1243.72 670.963C1241.05 674.855 1237.18 677.881 1232.12 680.04C1227.1 682.17 1221.03 683.236 1213.93 683.236C1206.88 683.236 1200.75 682.156 1195.52 679.997C1190.32 677.838 1186.26 674.642 1183.33 670.409C1180.43 666.148 1178.91 660.878 1178.77 654.599H1196.63C1196.83 657.526 1197.66 659.969 1199.14 661.929C1200.65 663.861 1202.65 665.324 1205.15 666.318C1207.68 667.284 1210.53 667.767 1213.72 667.767C1216.84 667.767 1219.55 667.312 1221.86 666.403C1224.18 665.494 1225.99 664.23 1227.27 662.611C1228.55 660.991 1229.18 659.131 1229.18 657.028C1229.18 655.068 1228.6 653.42 1227.44 652.085C1226.3 650.75 1224.63 649.614 1222.41 648.676C1220.22 647.739 1217.54 646.886 1214.36 646.119L1204.85 643.733C1197.49 641.943 1191.68 639.145 1187.42 635.338C1183.16 631.531 1181.05 626.403 1181.07 619.955C1181.05 614.67 1182.45 610.054 1185.29 606.105C1188.16 602.156 1192.1 599.074 1197.1 596.858C1202.1 594.642 1207.78 593.534 1214.14 593.534C1220.62 593.534 1226.27 594.642 1231.1 596.858C1235.96 599.074 1239.74 602.156 1242.44 606.105C1245.14 610.054 1246.53 614.628 1246.61 619.827H1228.93ZM1278.54 683.236C1274.37 683.236 1270.64 682.511 1267.38 681.062C1264.11 679.585 1261.52 677.412 1259.62 674.543C1257.75 671.645 1256.81 668.037 1256.81 663.719C1256.81 660.082 1257.48 657.028 1258.81 654.557C1260.15 652.085 1261.97 650.097 1264.27 648.591C1266.57 647.085 1269.18 645.949 1272.11 645.182C1275.06 644.415 1278.16 643.875 1281.4 643.562C1285.2 643.165 1288.27 642.795 1290.6 642.455C1292.93 642.085 1294.62 641.545 1295.67 640.835C1296.72 640.125 1297.25 639.074 1297.25 637.682V637.426C1297.25 634.727 1296.4 632.639 1294.69 631.162C1293.02 629.685 1290.63 628.946 1287.53 628.946C1284.27 628.946 1281.67 629.67 1279.74 631.119C1277.8 632.54 1276.52 634.33 1275.9 636.489L1259.11 635.125C1259.96 631.148 1261.64 627.71 1264.14 624.812C1266.64 621.886 1269.86 619.642 1273.81 618.08C1277.79 616.489 1282.39 615.693 1287.62 615.693C1291.25 615.693 1294.74 616.119 1298.06 616.972C1301.41 617.824 1304.38 619.145 1306.97 620.935C1309.58 622.724 1311.64 625.026 1313.14 627.838C1314.65 630.622 1315.4 633.96 1315.4 637.852V682H1298.19V672.923H1297.68C1296.62 674.969 1295.22 676.773 1293.46 678.335C1291.7 679.869 1289.58 681.077 1287.11 681.957C1284.64 682.81 1281.78 683.236 1278.54 683.236ZM1283.74 670.707C1286.41 670.707 1288.77 670.182 1290.81 669.131C1292.86 668.051 1294.47 666.602 1295.63 664.784C1296.79 662.966 1297.38 660.906 1297.38 658.605V651.659C1296.81 652.028 1296.03 652.369 1295.03 652.682C1294.07 652.966 1292.97 653.236 1291.75 653.491C1290.53 653.719 1289.31 653.932 1288.09 654.131C1286.87 654.301 1285.76 654.457 1284.76 654.599C1282.63 654.912 1280.77 655.409 1279.18 656.091C1277.59 656.773 1276.35 657.696 1275.47 658.861C1274.59 659.997 1274.15 661.418 1274.15 663.122C1274.15 665.594 1275.05 667.483 1276.84 668.79C1278.66 670.068 1280.96 670.707 1283.74 670.707ZM1347.64 644.159V682H1329.49V616.545H1346.79V628.094H1347.55C1349 624.287 1351.43 621.276 1354.84 619.06C1358.25 616.815 1362.38 615.693 1367.24 615.693C1371.79 615.693 1375.75 616.688 1379.13 618.676C1382.51 620.665 1385.14 623.506 1387.01 627.199C1388.89 630.864 1389.83 635.239 1389.83 640.324V682H1371.67V643.562C1371.7 639.557 1370.68 636.432 1368.61 634.188C1366.53 631.915 1363.68 630.778 1360.04 630.778C1357.6 630.778 1355.44 631.304 1353.56 632.355C1351.72 633.406 1350.27 634.94 1349.22 636.957C1348.19 638.946 1347.67 641.347 1347.64 644.159ZM1404.13 682V616.545H1422.29V682H1404.13ZM1413.25 608.108C1410.56 608.108 1408.24 607.213 1406.31 605.423C1404.4 603.605 1403.45 601.432 1403.45 598.903C1403.45 596.403 1404.4 594.259 1406.31 592.469C1408.24 590.651 1410.56 589.741 1413.25 589.741C1415.95 589.741 1418.25 590.651 1420.16 592.469C1422.09 594.259 1423.06 596.403 1423.06 598.903C1423.06 601.432 1422.09 603.605 1420.16 605.423C1418.25 607.213 1415.95 608.108 1413.25 608.108ZM1466.66 683.278C1459.93 683.278 1454.13 681.915 1449.27 679.188C1444.44 676.432 1440.72 672.54 1438.11 667.511C1435.5 662.455 1434.19 656.474 1434.19 649.571C1434.19 642.838 1435.5 636.929 1438.11 631.844C1440.72 626.759 1444.4 622.795 1449.15 619.955C1453.92 617.114 1459.51 615.693 1465.94 615.693C1470.25 615.693 1474.27 616.389 1478 617.781C1481.75 619.145 1485.01 621.205 1487.8 623.96C1490.61 626.716 1492.8 630.182 1494.36 634.358C1495.92 638.506 1496.7 643.364 1496.7 648.932V653.918H1441.43V642.668H1479.61C1479.61 640.054 1479.05 637.739 1477.91 635.722C1476.77 633.705 1475.2 632.128 1473.18 630.991C1471.19 629.827 1468.88 629.244 1466.23 629.244C1463.48 629.244 1461.03 629.884 1458.9 631.162C1456.8 632.412 1455.15 634.102 1453.96 636.233C1452.77 638.335 1452.16 640.679 1452.13 643.264V653.96C1452.13 657.199 1452.73 659.997 1453.92 662.355C1455.14 664.713 1456.86 666.531 1459.07 667.81C1461.29 669.088 1463.92 669.727 1466.96 669.727C1468.98 669.727 1470.82 669.443 1472.5 668.875C1474.17 668.307 1475.61 667.455 1476.8 666.318C1478 665.182 1478.9 663.79 1479.53 662.142L1496.32 663.25C1495.47 667.284 1493.72 670.807 1491.08 673.818C1488.46 676.801 1485.08 679.131 1480.94 680.807C1476.82 682.455 1472.06 683.278 1466.66 683.278ZM1508.55 682V616.545H1526.15V627.966H1526.83C1528.02 623.903 1530.03 620.835 1532.84 618.761C1535.65 616.659 1538.89 615.608 1542.55 615.608C1543.46 615.608 1544.44 615.665 1545.5 615.778C1546.55 615.892 1547.47 616.048 1548.26 616.247V632.355C1547.41 632.099 1546.23 631.872 1544.73 631.673C1543.22 631.474 1541.84 631.375 1540.59 631.375C1537.92 631.375 1535.54 631.957 1533.44 633.122C1531.36 634.259 1529.71 635.849 1528.49 637.895C1527.3 639.94 1526.7 642.298 1526.7 644.969V682H1508.55ZM1599.62 654.131V616.545H1617.78V682H1600.35V670.111H1599.67C1598.19 673.946 1595.73 677.028 1592.3 679.358C1588.89 681.687 1584.72 682.852 1579.81 682.852C1575.43 682.852 1571.59 681.858 1568.26 679.869C1564.94 677.881 1562.34 675.054 1560.46 671.389C1558.62 667.724 1557.68 663.335 1557.65 658.222V616.545H1575.8V654.983C1575.83 658.847 1576.87 661.901 1578.91 664.145C1580.96 666.389 1583.7 667.511 1587.14 667.511C1589.33 667.511 1591.37 667.014 1593.28 666.02C1595.18 664.997 1596.71 663.491 1597.88 661.503C1599.07 659.514 1599.65 657.057 1599.62 654.131ZM1650.45 644.159V682H1632.3V616.545H1649.6V628.094H1650.37C1651.82 624.287 1654.25 621.276 1657.65 619.06C1661.06 616.815 1665.2 615.693 1670.05 615.693C1674.6 615.693 1678.56 616.688 1681.94 618.676C1685.32 620.665 1687.95 623.506 1689.83 627.199C1691.7 630.864 1692.64 635.239 1692.64 640.324V682H1674.49V643.562C1674.51 639.557 1673.49 636.432 1671.42 634.188C1669.34 631.915 1666.49 630.778 1662.85 630.778C1660.41 630.778 1658.25 631.304 1656.38 632.355C1654.53 633.406 1653.08 634.94 1652.03 636.957C1651.01 638.946 1650.48 641.347 1650.45 644.159ZM1736.44 707.909C1730.56 707.909 1725.51 707.099 1721.31 705.48C1717.13 703.889 1713.81 701.716 1711.34 698.96C1708.87 696.205 1707.26 693.108 1706.52 689.67L1723.31 687.412C1723.82 688.719 1724.63 689.94 1725.74 691.077C1726.85 692.213 1728.31 693.122 1730.13 693.804C1731.98 694.514 1734.22 694.869 1736.86 694.869C1740.81 694.869 1744.06 693.903 1746.62 691.972C1749.21 690.068 1750.5 686.872 1750.5 682.384V670.409H1749.73C1748.94 672.227 1747.74 673.946 1746.15 675.565C1744.56 677.185 1742.52 678.506 1740.02 679.528C1737.52 680.551 1734.53 681.062 1731.07 681.062C1726.15 681.062 1721.68 679.926 1717.64 677.653C1713.64 675.352 1710.44 671.844 1708.06 667.128C1705.7 662.384 1704.52 656.389 1704.52 649.145C1704.52 641.73 1705.73 635.537 1708.14 630.565C1710.56 625.594 1713.77 621.872 1717.77 619.401C1721.81 616.929 1726.22 615.693 1731.02 615.693C1734.69 615.693 1737.76 616.318 1740.23 617.568C1742.7 618.79 1744.69 620.324 1746.19 622.17C1747.73 623.989 1748.91 625.778 1749.73 627.54H1750.41V616.545H1768.44V682.639C1768.44 688.207 1767.08 692.866 1764.35 696.616C1761.62 700.366 1757.84 703.179 1753.01 705.054C1748.21 706.957 1742.69 707.909 1736.44 707.909ZM1736.82 667.426C1739.75 667.426 1742.22 666.702 1744.23 665.253C1746.28 663.776 1747.84 661.673 1748.92 658.946C1750.03 656.19 1750.58 652.895 1750.58 649.06C1750.58 645.224 1750.04 641.901 1748.96 639.088C1747.88 636.247 1746.32 634.045 1744.28 632.483C1742.23 630.92 1739.75 630.139 1736.82 630.139C1733.84 630.139 1731.32 630.949 1729.28 632.568C1727.23 634.159 1725.68 636.375 1724.63 639.216C1723.58 642.057 1723.06 645.338 1723.06 649.06C1723.06 652.838 1723.58 656.105 1724.63 658.861C1725.71 661.588 1727.26 663.705 1729.28 665.21C1731.32 666.687 1733.84 667.426 1736.82 667.426ZM1837.42 683.278C1831.4 683.278 1826.2 682.199 1821.82 680.04C1817.45 677.881 1814.08 674.955 1811.72 671.261C1809.39 667.54 1808.23 663.392 1808.23 658.818C1808.23 655.409 1808.91 652.384 1810.27 649.741C1811.64 647.099 1813.54 644.67 1815.99 642.455C1818.43 640.21 1821.27 637.98 1824.51 635.764L1841.43 624.642C1843.61 623.25 1845.22 621.787 1846.24 620.253C1847.26 618.69 1847.77 617 1847.77 615.182C1847.77 613.449 1847.08 611.844 1845.69 610.366C1844.29 608.889 1842.32 608.165 1839.76 608.193C1838.06 608.193 1836.58 608.577 1835.33 609.344C1834.08 610.082 1833.1 611.062 1832.39 612.284C1831.71 613.477 1831.37 614.812 1831.37 616.29C1831.37 618.108 1831.88 619.955 1832.9 621.83C1833.93 623.705 1835.29 625.693 1836.99 627.795C1838.7 629.869 1840.56 632.114 1842.58 634.528L1883.95 682H1865.03L1830.52 643.562C1828.24 640.977 1825.97 638.278 1823.7 635.466C1821.45 632.625 1819.58 629.614 1818.07 626.432C1816.57 623.222 1815.81 619.741 1815.81 615.991C1815.81 611.759 1816.79 607.952 1818.75 604.571C1820.74 601.19 1823.53 598.52 1827.11 596.56C1830.69 594.571 1834.86 593.577 1839.64 593.577C1844.29 593.577 1848.31 594.528 1851.7 596.432C1855.1 598.307 1857.72 600.807 1859.54 603.932C1861.38 607.028 1862.31 610.437 1862.31 614.159C1862.31 618.278 1861.28 622.014 1859.24 625.366C1857.22 628.69 1854.38 631.673 1850.72 634.315L1832.9 647.142C1830.49 648.903 1828.7 650.707 1827.53 652.554C1826.4 654.372 1825.83 656.119 1825.83 657.795C1825.83 659.869 1826.34 661.73 1827.36 663.378C1828.39 665.026 1829.83 666.332 1831.71 667.298C1833.58 668.236 1835.79 668.705 1838.31 668.705C1841.38 668.705 1844.41 668.009 1847.39 666.616C1850.4 665.196 1853.13 663.193 1855.57 660.608C1858.04 657.994 1860.02 654.898 1861.5 651.318C1862.97 647.739 1863.71 643.776 1863.71 639.429H1878.75C1878.75 644.77 1878.17 649.585 1877.01 653.875C1875.84 658.136 1874.22 661.858 1872.15 665.04C1870.08 668.193 1867.7 670.778 1865.03 672.795C1864.18 673.335 1863.36 673.847 1862.56 674.33C1861.77 674.812 1860.94 675.324 1860.09 675.864C1856.85 678.477 1853.23 680.366 1849.22 681.531C1845.25 682.696 1841.31 683.278 1837.42 683.278ZM1938.08 594.727V682H1919.63V594.727H1938.08ZM1971.08 644.159V682H1952.92V616.545H1970.23V628.094H1970.99C1972.44 624.287 1974.87 621.276 1978.28 619.06C1981.69 616.815 1985.82 615.693 1990.68 615.693C1995.23 615.693 1999.19 616.688 2002.57 618.676C2005.95 620.665 2008.58 623.506 2010.45 627.199C2012.33 630.864 2013.26 635.239 2013.26 640.324V682H1995.11V643.562C1995.14 639.557 1994.12 636.432 1992.04 634.188C1989.97 631.915 1987.11 630.778 1983.48 630.778C1981.03 630.778 1978.88 631.304 1977 632.355C1975.15 633.406 1973.71 634.94 1972.65 636.957C1971.63 638.946 1971.11 641.347 1971.08 644.159ZM2045.73 644.159V682H2027.57V616.545H2044.87V628.094H2045.64C2047.09 624.287 2049.52 621.276 2052.93 619.06C2056.34 616.815 2060.47 615.693 2065.33 615.693C2069.87 615.693 2073.84 616.688 2077.22 618.676C2080.6 620.665 2083.23 623.506 2085.1 627.199C2086.98 630.864 2087.91 635.239 2087.91 640.324V682H2069.76V643.562C2069.79 639.557 2068.77 636.432 2066.69 634.188C2064.62 631.915 2061.76 630.778 2058.13 630.778C2055.68 630.778 2053.52 631.304 2051.65 632.355C2049.8 633.406 2048.35 634.94 2047.3 636.957C2046.28 638.946 2045.75 641.347 2045.73 644.159ZM2132.05 683.278C2125.32 683.278 2119.52 681.915 2114.66 679.188C2109.83 676.432 2106.11 672.54 2103.5 667.511C2100.89 662.455 2099.58 656.474 2099.58 649.571C2099.58 642.838 2100.89 636.929 2103.5 631.844C2106.11 626.759 2109.79 622.795 2114.54 619.955C2119.31 617.114 2124.91 615.693 2131.33 615.693C2135.64 615.693 2139.66 616.389 2143.39 617.781C2147.14 619.145 2150.4 621.205 2153.19 623.96C2156 626.716 2158.19 630.182 2159.75 634.358C2161.31 638.506 2162.09 643.364 2162.09 648.932V653.918H2106.82V642.668H2145C2145 640.054 2144.44 637.739 2143.3 635.722C2142.16 633.705 2140.59 632.128 2138.57 630.991C2136.58 629.827 2134.27 629.244 2131.62 629.244C2128.87 629.244 2126.43 629.884 2124.29 631.162C2122.19 632.412 2120.54 634.102 2119.35 636.233C2118.16 638.335 2117.55 640.679 2117.52 643.264V653.96C2117.52 657.199 2118.12 659.997 2119.31 662.355C2120.53 664.713 2122.25 666.531 2124.47 667.81C2126.68 669.088 2129.31 669.727 2132.35 669.727C2134.37 669.727 2136.21 669.443 2137.89 668.875C2139.56 668.307 2141 667.455 2142.19 666.318C2143.39 665.182 2144.29 663.79 2144.92 662.142L2161.71 663.25C2160.86 667.284 2159.11 670.807 2156.47 673.818C2153.85 676.801 2150.47 679.131 2146.33 680.807C2142.21 682.455 2137.45 683.278 2132.05 683.278ZM2192.09 644.159V682H2173.94V616.545H2191.24V628.094H2192.01C2193.46 624.287 2195.89 621.276 2199.29 619.06C2202.7 616.815 2206.84 615.693 2211.7 615.693C2216.24 615.693 2220.2 616.688 2223.58 618.676C2226.97 620.665 2229.59 623.506 2231.47 627.199C2233.34 630.864 2234.28 635.239 2234.28 640.324V682H2216.13V643.562C2216.16 639.557 2215.13 636.432 2213.06 634.188C2210.99 631.915 2208.13 630.778 2204.49 630.778C2202.05 630.778 2199.89 631.304 2198.02 632.355C2196.17 633.406 2194.72 634.94 2193.67 636.957C2192.65 638.946 2192.12 641.347 2192.09 644.159ZM2267.25 683.236C2263.08 683.236 2259.36 682.511 2256.09 681.062C2252.82 679.585 2250.24 677.412 2248.33 674.543C2246.46 671.645 2245.52 668.037 2245.52 663.719C2245.52 660.082 2246.19 657.028 2247.52 654.557C2248.86 652.085 2250.68 650.097 2252.98 648.591C2255.28 647.085 2257.89 645.949 2260.82 645.182C2263.77 644.415 2266.87 643.875 2270.11 643.562C2273.91 643.165 2276.98 642.795 2279.31 642.455C2281.64 642.085 2283.33 641.545 2284.38 640.835C2285.43 640.125 2285.96 639.074 2285.96 637.682V637.426C2285.96 634.727 2285.11 632.639 2283.4 631.162C2281.73 629.685 2279.34 628.946 2276.24 628.946C2272.98 628.946 2270.38 629.67 2268.45 631.119C2266.51 632.54 2265.24 634.33 2264.61 636.489L2247.82 635.125C2248.67 631.148 2250.35 627.71 2252.85 624.812C2255.35 621.886 2258.57 619.642 2262.52 618.08C2266.5 616.489 2271.1 615.693 2276.33 615.693C2279.97 615.693 2283.45 616.119 2286.77 616.972C2290.12 617.824 2293.09 619.145 2295.68 620.935C2298.29 622.724 2300.35 625.026 2301.86 627.838C2303.36 630.622 2304.11 633.96 2304.11 637.852V682H2286.9V672.923H2286.39C2285.34 674.969 2283.93 676.773 2282.17 678.335C2280.41 679.869 2278.29 681.077 2275.82 681.957C2273.35 682.81 2270.49 683.236 2267.25 683.236ZM2272.45 670.707C2275.12 670.707 2277.48 670.182 2279.53 669.131C2281.57 668.051 2283.18 666.602 2284.34 664.784C2285.51 662.966 2286.09 660.906 2286.09 658.605V651.659C2285.52 652.028 2284.74 652.369 2283.74 652.682C2282.78 652.966 2281.68 653.236 2280.46 653.491C2279.24 653.719 2278.02 653.932 2276.8 654.131C2275.58 654.301 2274.47 654.457 2273.47 654.599C2271.34 654.912 2269.48 655.409 2267.89 656.091C2266.3 656.773 2265.07 657.696 2264.18 658.861C2263.3 659.997 2262.86 661.418 2262.86 663.122C2262.86 665.594 2263.76 667.483 2265.55 668.79C2267.37 670.068 2269.67 670.707 2272.45 670.707ZM2360.17 654.131V616.545H2378.33V682H2360.9V670.111H2360.21C2358.74 673.946 2356.28 677.028 2352.84 679.358C2349.43 681.687 2345.27 682.852 2340.36 682.852C2335.98 682.852 2332.13 681.858 2328.81 679.869C2325.48 677.881 2322.88 675.054 2321.01 671.389C2319.16 667.724 2318.23 663.335 2318.2 658.222V616.545H2336.35V654.983C2336.38 658.847 2337.42 661.901 2339.46 664.145C2341.51 666.389 2344.25 667.511 2347.69 667.511C2349.87 667.511 2351.92 667.014 2353.82 666.02C2355.73 664.997 2357.26 663.491 2358.42 661.503C2359.62 659.514 2360.2 657.057 2360.17 654.131ZM2447.31 635.21L2430.69 636.233C2430.4 634.812 2429.79 633.534 2428.85 632.398C2427.92 631.233 2426.68 630.31 2425.15 629.628C2423.64 628.918 2421.84 628.562 2419.74 628.562C2416.92 628.562 2414.55 629.159 2412.62 630.352C2410.69 631.517 2409.72 633.08 2409.72 635.04C2409.72 636.602 2410.35 637.923 2411.6 639.003C2412.85 640.082 2414.99 640.949 2418.03 641.602L2429.88 643.989C2436.24 645.295 2440.99 647.398 2444.11 650.295C2447.24 653.193 2448.8 657 2448.8 661.716C2448.8 666.006 2447.53 669.77 2445 673.009C2442.5 676.247 2439.07 678.776 2434.69 680.594C2430.35 682.384 2425.33 683.278 2419.65 683.278C2410.99 683.278 2404.08 681.474 2398.94 677.866C2393.83 674.23 2390.83 669.287 2389.95 663.037L2407.8 662.099C2408.34 664.741 2409.65 666.759 2411.72 668.151C2413.8 669.514 2416.45 670.196 2419.69 670.196C2422.87 670.196 2425.43 669.585 2427.36 668.364C2429.32 667.114 2430.32 665.509 2430.35 663.548C2430.32 661.901 2429.62 660.551 2428.26 659.5C2426.89 658.42 2424.79 657.597 2421.95 657.028L2410.62 654.77C2404.22 653.491 2399.47 651.276 2396.34 648.122C2393.24 644.969 2391.7 640.949 2391.7 636.062C2391.7 631.858 2392.83 628.236 2395.1 625.196C2397.41 622.156 2400.63 619.812 2404.78 618.165C2408.95 616.517 2413.84 615.693 2419.44 615.693C2427.7 615.693 2434.21 617.44 2438.95 620.935C2443.73 624.429 2446.51 629.187 2447.31 635.21ZM2460.57 682V594.727H2478.72V627.54H2479.28C2480.07 625.778 2481.22 623.989 2482.73 622.17C2484.26 620.324 2486.25 618.79 2488.69 617.568C2491.17 616.318 2494.23 615.693 2497.9 615.693C2502.67 615.693 2507.08 616.943 2511.11 619.443C2515.14 621.915 2518.37 625.651 2520.78 630.651C2523.2 635.622 2524.4 641.858 2524.4 649.358C2524.4 656.659 2523.23 662.824 2520.87 667.852C2518.54 672.852 2515.36 676.645 2511.32 679.23C2507.32 681.787 2502.83 683.065 2497.86 683.065C2494.33 683.065 2491.34 682.483 2488.87 681.318C2486.42 680.153 2484.42 678.69 2482.86 676.929C2481.29 675.139 2480.1 673.335 2479.28 671.517H2478.47V682H2460.57ZM2478.34 649.273C2478.34 653.165 2478.88 656.56 2479.96 659.457C2481.04 662.355 2482.6 664.614 2484.65 666.233C2486.69 667.824 2489.18 668.619 2492.1 668.619C2495.06 668.619 2497.56 667.81 2499.6 666.19C2501.65 664.543 2503.2 662.27 2504.25 659.372C2505.33 656.446 2505.87 653.08 2505.87 649.273C2505.87 645.494 2505.34 642.17 2504.29 639.301C2503.24 636.432 2501.69 634.187 2499.65 632.568C2497.6 630.949 2495.09 630.139 2492.1 630.139C2489.15 630.139 2486.65 630.92 2484.6 632.483C2482.59 634.045 2481.04 636.261 2479.96 639.131C2478.88 642 2478.34 645.381 2478.34 649.273ZM2555.18 683.236C2551.01 683.236 2547.28 682.511 2544.02 681.062C2540.75 679.585 2538.17 677.412 2536.26 674.543C2534.39 671.645 2533.45 668.037 2533.45 663.719C2533.45 660.082 2534.12 657.028 2535.45 654.557C2536.79 652.085 2538.61 650.097 2540.91 648.591C2543.21 647.085 2545.82 645.949 2548.75 645.182C2551.7 644.415 2554.8 643.875 2558.04 643.562C2561.84 643.165 2564.91 642.795 2567.24 642.455C2569.57 642.085 2571.26 641.545 2572.31 640.835C2573.36 640.125 2573.89 639.074 2573.89 637.682V637.426C2573.89 634.727 2573.04 632.639 2571.33 631.162C2569.66 629.685 2567.27 628.946 2564.17 628.946C2560.91 628.946 2558.31 629.67 2556.38 631.119C2554.44 632.54 2553.17 634.33 2552.54 636.489L2535.75 635.125C2536.6 631.148 2538.28 627.71 2540.78 624.812C2543.28 621.886 2546.5 619.642 2550.45 618.08C2554.43 616.489 2559.03 615.693 2564.26 615.693C2567.9 615.693 2571.38 616.119 2574.7 616.972C2578.05 617.824 2581.02 619.145 2583.61 620.935C2586.22 622.724 2588.28 625.026 2589.78 627.838C2591.29 630.622 2592.04 633.96 2592.04 637.852V682H2574.83V672.923H2574.32C2573.26 674.969 2571.86 676.773 2570.1 678.335C2568.34 679.869 2566.22 681.077 2563.75 681.957C2561.28 682.81 2558.42 683.236 2555.18 683.236ZM2560.38 670.707C2563.05 670.707 2565.41 670.182 2567.46 669.131C2569.5 668.051 2571.11 666.602 2572.27 664.784C2573.44 662.966 2574.02 660.906 2574.02 658.605V651.659C2573.45 652.028 2572.67 652.369 2571.67 652.682C2570.71 652.966 2569.61 653.236 2568.39 653.491C2567.17 653.719 2565.95 653.932 2564.73 654.131C2563.51 654.301 2562.4 654.457 2561.4 654.599C2559.27 654.912 2557.41 655.409 2555.82 656.091C2554.23 656.773 2553 657.696 2552.11 658.861C2551.23 659.997 2550.79 661.418 2550.79 663.122C2550.79 665.594 2551.69 667.483 2553.48 668.79C2555.3 670.068 2557.6 670.707 2560.38 670.707ZM2648.1 654.131V616.545H2666.25V682H2648.83V670.111H2648.14C2646.67 673.946 2644.21 677.028 2640.77 679.358C2637.36 681.687 2633.2 682.852 2628.29 682.852C2623.91 682.852 2620.06 681.858 2616.74 679.869C2613.41 677.881 2610.81 675.054 2608.94 671.389C2607.09 667.724 2606.16 663.335 2606.13 658.222V616.545H2624.28V654.983C2624.31 658.847 2625.35 661.901 2627.39 664.145C2629.44 666.389 2632.18 667.511 2635.62 667.511C2637.8 667.511 2639.85 667.014 2641.75 666.02C2643.66 664.997 2645.19 663.491 2646.35 661.503C2647.55 659.514 2648.13 657.057 2648.1 654.131Z" fill="white"/>
<defs>
<filter id="filter0_di_1_80" x="1156.02" y="242.057" width="1500.76" height="322.205" filterUnits="userSpaceOnUse" color-interpolation-filters="sRGB">
<feFlood flood-opacity="0" result="BackgroundImageFix"/>
<feColorMatrix in="SourceAlpha" type="matrix" values="0 0 0 0 0 0 0 0 0 0 0 0 0 0 0 0 0 0 127 0" result="hardAlpha"/>
<feOffset dy="4"/>
<feGaussianBlur stdDeviation="2"/>
<feComposite in2="hardAlpha" operator="out"/>
<feColorMatrix type="matrix" values="0 0 0 0 0 0 0 0 0 0 0 0 0 0 0 0 0 0 0.25 0"/>
<feBlend mode="normal" in2="BackgroundImageFix" result="effect1_dropShadow_1_80"/>
<feBlend mode="normal" in="SourceGraphic" in2="effect1_dropShadow_1_80" result="shape"/>
<feColorMatrix in="SourceAlpha" type="matrix" values="0 0 0 0 0 0 0 0 0 0 0 0 0 0 0 0 0 0 127 0" result="hardAlpha"/>
<feOffset dy="4"/>
<feGaussianBlur stdDeviation="2"/>
<feComposite in2="hardAlpha" operator="arithmetic" k2="-1" k3="1"/>
<feColorMatrix type="matrix" values="0 0 0 0 0 0 0 0 0 0 0 0 0 0 0 0 0 0 0.25 0"/>
<feBlend mode="normal" in2="shape" result="effect2_innerShadow_1_80"/>
</filter>
</defs>
</svg>
